<?xml version="1.0" encoding="utf-8"?>
<!-- Generator: Adobe Illustrator 27.4.1, SVG Export Plug-In . SVG Version: 6.00 Build 0)  -->
<svg version="1.1" id="Layer_1" xmlns="http://www.w3.org/2000/svg" xmlns:xlink="http://www.w3.org/1999/xlink" x="0px" y="0px"
	 viewBox="0 0 557.49 145.63" style="enable-background:new 0 0 557.49 145.63;" xml:space="preserve">
<style type="text/css">
	.st0{fill:#FF0000;}
	.st1{fill-rule:evenodd;clip-rule:evenodd;fill:#FFFFFF;}
	.st2{fill:#95C11F;}
	.st3{clip-path:url(#SVGID_00000036949623805868585520000009579688002539206588_);}
	.st4{fill:#009640;}
	.st5{fill:#FFFFFF;}
	.st6{fill:#1D1D1B;}
	.st7{fill:none;}
</style>
<g>
	<path class="st0" d="M21.55,100.43c0,8.07,0,12.57,2.93,15.5s7.42,2.93,15.5,2.93h55.28c8.07,0,12.57,0,15.5-2.93
		s2.93-7.42,2.93-15.5V45.15c0-8.07,0-12.57-2.93-15.5s-7.42-2.93-15.5-2.93H39.98c-8.07,0-12.57,0-15.5,2.93s-2.93,7.42-2.93,15.5
		C21.55,45.15,21.55,100.43,21.55,100.43z"/>
	<path class="st1" d="M71.55,76.6v15.28c0,2.16-1.76,3.92-3.92,3.92H52.41c-2.06,0-3.76,1.6-3.91,3.63v4.07
		c0,2.16-1.76,3.92-3.92,3.92h-7.62c-2.16,0-3.92-1.76-3.92-3.92v-7.62c0-2.16,1.76-3.92,3.92-3.92h3.67l0.08-0.01
		c1.98,0,3.62-1.47,3.89-3.38V72.89c0-2.15,1.76-3.92,3.92-3.92h15.96c1.67-0.29,2.97-1.64,3.2-3.32V42.09
		c0-2.16,1.76-3.92,3.92-3.92h26.68c2.16,0,3.92,1.76,3.92,3.92v26.87c0,2.16-1.76,3.92-3.92,3.92H75.11
		c-1.94,0.18-3.47,1.77-3.56,3.73"/>
	<g id="XMLID_00000137095350533835815650000003466306646797238693_">
		<g id="XMLID_00000160167884466530392370000012336008017886385282_">
			<path class="st0" d="M21.24,100.58c0,8.11,0,12.62,2.94,15.56c2.94,2.94,7.46,2.94,15.56,2.94h55.53c8.11,0,12.62,0,15.56-2.94
				c2.94-2.94,2.94-7.45,2.94-15.56V45.05c0-8.11,0-12.62-2.94-15.56c-2.94-2.94-7.46-2.94-15.56-2.94H39.75
				c-8.11,0-12.62,0-15.56,2.94s-2.94,7.46-2.94,15.56V100.58z"/>
			<path id="XMLID_00000047767254252987933590000012039059147552122754_" class="st1" d="M75.48,80.79
				c-4.41,4.41-11.54,4.41-15.95,0s-4.41-11.54,0-15.95s11.54-4.41,15.95,0S79.89,76.38,75.48,80.79 M100.4,64.59L75.73,39.92
				c-3.6-3.6-5.61-5.61-8.22-5.61c-2.62,0-4.62,2.01-8.22,5.61L34.62,64.59c-3.6,3.6-5.61,5.61-5.61,8.22
				c0,2.62,2.01,4.62,5.61,8.22l24.66,24.66c3.6,3.6,5.61,5.61,8.22,5.61c2.62,0,4.62-2.01,8.22-5.61l24.66-24.66
				c3.6-3.6,5.61-5.61,5.61-8.22C106.01,70.2,104,68.19,100.4,64.59z"/>
		</g>
	</g>
</g>
<path class="st2" d="M53.34,107.12c-0.44,0-0.85-0.09-1.22-0.29l0.49-0.87c1.44,0.81,4.68-1.48,5.7-2.35l0.65,0.76
	C58.58,104.7,55.64,107.12,53.34,107.12z"/>
<path class="st2" d="M54.38,110.26c-0.86-2.5,3.18-5.9,3.64-6.28l0.63,0.77c-1.03,0.85-3.86,3.62-3.33,5.19l-0.95,0.32H54.38z"/>
<g>
	<defs>
		<rect id="SVGID_1_" x="21.55" y="16.86" width="92.1" height="93.15"/>
	</defs>
	<clipPath id="SVGID_00000095321588706183026090000003572999984051592100_">
		<use xlink:href="#SVGID_1_"  style="overflow:visible;"/>
	</clipPath>
	<g style="clip-path:url(#SVGID_00000095321588706183026090000003572999984051592100_);">
		<g>
			<path class="st4" d="M148.19,53.16c0,0-2.02,16.48-30,23.94s-39.95-0.62-52.07,11.66c-8.75,8.86-9.81,13.19-9.72,14.91
				c0.03,0.54,0.37,1.01,0.87,1.22c2.33,1,10.6,4.16,16.16,1.12c6.53-3.58,8.55-12.59,19.28-13.52c10.62-0.92,27.96,7.46,49.14-6.13
				c0.38-0.24,0.62-0.65,0.66-1.1c1.18-14.2,5.69-32.09,5.69-32.09L148.19,53.16z"/>
			<path class="st4" d="M18.41,51.61c0.52-0.74,1.56-0.81,2.21-0.19c1.86,1.76,6.23,4.29,14.22,0.73
				c11.25-5.02,18.44-13.97,28.61-15.05s15.05,2.44,16.41,7.86s0.14,14.51-3.8,12.88s0.81-14.64-10.03-13.69s-19.8,22.37-41.08,24
				C7.27,69.5,15.21,56.17,18.41,51.61L18.41,51.61z"/>
		</g>
	</g>
</g>
<g>
	<path class="st5" d="M65.25,100.62c0,0,1.86-4.37,5.05-6.17s7.41-1.14,7.41-1.14s-0.91,3.21-4.96,5.59
		C68.97,101.13,65.25,100.61,65.25,100.62L65.25,100.62z"/>
	<circle class="st6" cx="71.42" cy="96.68" r="2.06"/>
</g>
<g>
	<path class="st7" d="M92.68,92.49c-10.73,0.93-12.75,9.95-19.28,13.52c-5.56,3.05-13.83-0.11-16.16-1.12
		c-0.5-0.21-0.84-0.68-0.87-1.22c-0.09-1.72,0.97-6.05,9.72-14.91c7.25-7.34,14.45-7.41,25.05-7.86c-0.16-0.59-0.26-1.2-0.26-1.83
		c0-4.68,4.78-8.47,10.68-8.47s10.28,3.5,10.64,7.93c0.47-0.1,0.94-0.2,1.42-0.31V16.86H21.53v26.85c0.73,0.52,1.68,1.03,2.87,1.36
		c0-0.13-0.02-0.25-0.02-0.38c0-3.26,3.11-5.9,6.95-5.9c2.82,0,5.25,1.43,6.33,3.48c1.62-0.86,3.17-1.78,4.66-2.73
		c-1.13-0.87-1.87-2.18-1.87-3.66c0-2.62,2.26-4.75,5.05-4.75c2.17,0,4,1.29,4.72,3.09c1.98-1.3,3.93-2.5,5.95-3.45
		c-0.42-0.57-0.67-1.25-0.67-1.98c0-1.97,1.78-3.56,3.97-3.56s3.85,1.51,3.95,3.39c0,0,0.01,0,0.02,0
		c10.17-1.08,15.05,2.44,16.41,7.86c1.36,5.42,0.14,14.51-3.8,12.88c-3.93-1.63,0.81-14.64-10.03-13.69s-19.8,22.37-41.08,24
		c-1.26,0.1-2.38,0.11-3.39,0.07v50.27h92.1V94.18c-8.46-0.24-15.57-2.16-20.96-1.69L92.68,92.49z"/>
	<path class="st2" d="M31.33,59.13c3.84,0,6.95-2.64,6.95-5.9c0-0.86-0.22-1.68-0.61-2.42c-0.92,0.49-1.86,0.96-2.84,1.4
		c-4.61,2.05-8.01,2.08-10.42,1.4C24.64,56.69,27.65,59.12,31.33,59.13L31.33,59.13z"/>
	<path class="st2" d="M50.55,44.42c0-0.58-0.13-1.14-0.33-1.65c-2.55,1.68-5.13,3.54-7.9,5.31c0.87,0.67,1.97,1.08,3.18,1.08
		C48.29,49.16,50.55,47.04,50.55,44.42L50.55,44.42z"/>
	<path class="st2" d="M59.47,40.89c2.19,0,3.97-1.59,3.97-3.56c0-0.06-0.02-0.11-0.02-0.17c-2.57,0.28-4.94,1.06-7.24,2.14
		C56.89,40.25,58.1,40.88,59.47,40.89L59.47,40.89z"/>
	<path class="st2" d="M101.57,87.53c5.9,0,10.68-3.79,10.68-8.47c0-0.19-0.02-0.37-0.03-0.55c-8.42,1.75-15.26,2.13-21.06,2.38
		c1.06,3.8,5.32,6.64,10.42,6.64L101.57,87.53z"/>
</g>
<g>
	<path class="st4" d="M145.21,97.61V55.43h5.1l0.6,3.84h0.3c1.08-1.4,2.4-2.49,3.96-3.27c1.56-0.78,3.34-1.17,5.34-1.17
		c2.6,0,4.96,0.66,7.08,1.98s3.8,3.17,5.04,5.55c1.24,2.38,1.86,5.09,1.86,8.13s-0.62,5.81-1.86,8.19
		c-1.24,2.38-2.92,4.23-5.04,5.55s-4.48,1.98-7.08,1.98c-1.96,0-3.71-0.38-5.25-1.14s-2.83-1.8-3.87-3.12h-0.3v15.66H145.21
		L145.21,97.61z M159.85,80.75c1.56,0,3.01-0.43,4.35-1.29c1.34-0.86,2.4-2.06,3.18-3.6s1.17-3.33,1.17-5.37s-0.39-3.77-1.17-5.31
		s-1.84-2.74-3.18-3.6c-1.34-0.86-2.79-1.29-4.35-1.29s-3.06,0.43-4.38,1.29s-2.38,2.06-3.18,3.6c-0.8,1.54-1.2,3.31-1.2,5.31
		s0.4,3.83,1.2,5.37s1.86,2.74,3.18,3.6C156.79,80.32,158.25,80.75,159.85,80.75z"/>
	<path class="st4" d="M179.95,97.61v-5.46h5.88c0.52,0,0.95-0.15,1.29-0.45c0.34-0.3,0.59-0.69,0.75-1.17l1.62-4.62l0.06,3.54
		l-13.08-34.02h6.3l8.58,23.04h1.2l7.8-23.04h6.24l-13.38,37.38c-0.6,1.64-1.39,2.85-2.37,3.63s-2.43,1.17-4.35,1.17
		C186.49,97.61,179.95,97.61,179.95,97.61z"/>
	<path class="st4" d="M209.59,71.27v-5.52h19.68v5.52H209.59z"/>
	<path class="st4" d="M235.99,97.61V55.43h5.1l0.6,3.84h0.3c1.08-1.4,2.4-2.49,3.96-3.27c1.56-0.78,3.34-1.17,5.34-1.17
		c2.6,0,4.96,0.66,7.08,1.98s3.8,3.17,5.04,5.55c1.24,2.38,1.86,5.09,1.86,8.13s-0.62,5.81-1.86,8.19
		c-1.24,2.38-2.92,4.23-5.04,5.55s-4.48,1.98-7.08,1.98c-1.96,0-3.71-0.38-5.25-1.14s-2.83-1.8-3.87-3.12h-0.3v15.66H235.99
		L235.99,97.61z M250.63,80.75c1.56,0,3.01-0.43,4.35-1.29c1.34-0.86,2.4-2.06,3.18-3.6s1.17-3.33,1.17-5.37s-0.39-3.77-1.17-5.31
		s-1.84-2.74-3.18-3.6c-1.34-0.86-2.79-1.29-4.35-1.29s-3.06,0.43-4.38,1.29s-2.38,2.06-3.18,3.6c-0.8,1.54-1.2,3.31-1.2,5.31
		s0.4,3.83,1.2,5.37s1.86,2.74,3.18,3.6C247.57,80.32,249.03,80.75,250.63,80.75z"/>
	<path class="st4" d="M279.73,85.61c-2.04,0-3.63-0.55-4.77-1.65c-1.14-1.1-1.71-2.57-1.71-4.41v-18.6h-4.8v-5.52h4.8v-8.76h5.88
		v8.76h6.9v5.52h-6.9v17.34c0,0.68,0.15,1.17,0.45,1.47c0.3,0.3,0.79,0.45,1.47,0.45h4.98v5.4L279.73,85.61L279.73,85.61z"/>
	<path class="st4" d="M302.41,86.21c-2.68,0-4.97-0.47-6.87-1.41s-3.33-2.14-4.29-3.6c-0.96-1.46-1.44-2.97-1.44-4.53h5.82
		c0,0.8,0.27,1.54,0.81,2.22s1.31,1.23,2.31,1.65s2.22,0.63,3.66,0.63c2.08,0,3.68-0.37,4.8-1.11s1.68-1.67,1.68-2.79
		s-0.36-1.94-1.08-2.58s-1.9-1.1-3.54-1.38l-4.92-0.84c-3-0.52-5.26-1.49-6.78-2.91c-1.52-1.42-2.28-3.33-2.28-5.73
		c0-1.68,0.44-3.2,1.32-4.56s2.22-2.44,4.02-3.24c1.8-0.8,3.96-1.2,6.48-1.2s4.65,0.45,6.51,1.35c1.86,0.9,3.29,2.09,4.29,3.57
		s1.5,3,1.5,4.56h-5.82c0-0.8-0.26-1.54-0.78-2.22s-1.27-1.22-2.25-1.62c-0.98-0.4-2.13-0.6-3.45-0.6c-1.92,0-3.39,0.38-4.41,1.14
		s-1.53,1.7-1.53,2.82c0,0.92,0.34,1.68,1.02,2.28c0.68,0.6,1.8,1.04,3.36,1.32l5.04,0.84c3.12,0.52,5.43,1.52,6.93,3
		s2.25,3.46,2.25,5.94c0,1.68-0.47,3.2-1.41,4.56s-2.33,2.44-4.17,3.24S305.09,86.21,302.41,86.21L302.41,86.21z"/>
	<path class="st4" d="M330.19,86.21c-2.12,0-3.99-0.41-5.61-1.23s-2.88-1.93-3.78-3.33s-1.35-3-1.35-4.8c0-1.96,0.45-3.66,1.35-5.1
		c0.9-1.44,2.25-2.57,4.05-3.39s4.06-1.23,6.78-1.23h7.68v-0.78c0-1.96-0.57-3.52-1.71-4.68c-1.14-1.16-2.69-1.74-4.65-1.74
		c-1.28,0-2.4,0.2-3.36,0.6c-0.96,0.4-1.71,0.94-2.25,1.62s-0.87,1.4-0.99,2.16h-5.82c0.12-1.64,0.68-3.19,1.68-4.65
		c1-1.46,2.42-2.63,4.26-3.51c1.84-0.88,4-1.32,6.48-1.32s4.65,0.47,6.51,1.41c1.86,0.94,3.29,2.28,4.29,4.02s1.5,3.77,1.5,6.09
		v19.26h-5.1l-0.6-3.3h-0.3c-0.68,1-1.83,1.9-3.45,2.7S332.31,86.21,330.19,86.21L330.19,86.21z M330.79,81.17
		c1.76,0,3.29-0.34,4.59-1.02s2.28-1.64,2.94-2.88s0.99-2.68,0.99-4.32v-1.08h-7.26c-2.28,0-3.96,0.44-5.04,1.32
		c-1.08,0.88-1.62,2.02-1.62,3.42s0.47,2.46,1.41,3.3C327.74,80.75,329.07,81.17,330.79,81.17L330.79,81.17z"/>
	<path class="st4" d="M353.17,85.61V55.43h5.1l0.6,3.12h0.3c0.76-0.96,1.92-1.82,3.48-2.58s3.36-1.14,5.4-1.14
		c2.28,0,4.33,0.53,6.15,1.59s3.25,2.55,4.29,4.47c1.04,1.92,1.56,4.12,1.56,6.6v18.12h-5.94V67.97c0-1.44-0.32-2.73-0.96-3.87
		c-0.64-1.14-1.51-2.04-2.61-2.7c-1.1-0.66-2.35-0.99-3.75-0.99s-2.7,0.34-3.9,1.02c-1.2,0.68-2.14,1.6-2.82,2.76
		c-0.68,1.16-1.02,2.42-1.02,3.78v17.64H353.17L353.17,85.61z"/>
	<path class="st4" d="M400.21,86.21c-2.6,0-4.96-0.66-7.08-1.98s-3.8-3.17-5.04-5.55c-1.24-2.38-1.86-5.11-1.86-8.19
		s0.62-5.75,1.86-8.13s2.92-4.23,5.04-5.55s4.48-1.98,7.08-1.98c1.96,0,3.71,0.39,5.25,1.17s2.83,1.83,3.87,3.15h0.3V43.61h5.88v42
		h-5.04l-0.6-3.84h-0.3c-1.12,1.4-2.45,2.49-3.99,3.27C404.04,85.82,402.25,86.21,400.21,86.21L400.21,86.21z M400.93,80.75
		c1.56,0,3.01-0.43,4.35-1.29s2.4-2.06,3.18-3.6s1.17-3.33,1.17-5.37s-0.39-3.77-1.17-5.31s-1.84-2.74-3.18-3.6
		c-1.34-0.86-2.79-1.29-4.35-1.29s-3.07,0.43-4.41,1.29s-2.4,2.06-3.18,3.6c-0.78,1.54-1.17,3.31-1.17,5.31s0.39,3.83,1.17,5.37
		s1.84,2.74,3.18,3.6S399.33,80.75,400.93,80.75z"/>
	<path class="st4" d="M439.45,86.21c-2.04,0-3.83-0.39-5.37-1.17s-2.85-1.87-3.93-3.27h-0.3l-0.6,3.84h-5.1v-42h5.88v15.54h0.3
		c1.08-1.32,2.38-2.37,3.9-3.15c1.52-0.78,3.26-1.17,5.22-1.17c2.6,0,4.96,0.66,7.08,1.98s3.8,3.17,5.04,5.55
		c1.24,2.38,1.86,5.09,1.86,8.13s-0.62,5.81-1.86,8.19c-1.24,2.38-2.92,4.23-5.04,5.55S442.05,86.21,439.45,86.21z M438.79,80.75
		c1.56,0,3.01-0.43,4.35-1.29s2.4-2.06,3.18-3.6s1.17-3.33,1.17-5.37s-0.39-3.77-1.17-5.31s-1.84-2.74-3.18-3.6
		c-1.34-0.86-2.79-1.29-4.35-1.29s-3.06,0.43-4.38,1.29s-2.38,2.06-3.18,3.6c-0.8,1.54-1.2,3.31-1.2,5.31s0.4,3.83,1.2,5.37
		c0.8,1.54,1.86,2.74,3.18,3.6S437.19,80.75,438.79,80.75z"/>
	<path class="st4" d="M472.93,86.21c-2.8,0-5.34-0.67-7.62-2.01c-2.28-1.34-4.07-3.2-5.37-5.58c-1.3-2.38-1.95-5.09-1.95-8.13
		s0.65-5.69,1.95-8.07c1.3-2.38,3.09-4.24,5.37-5.58c2.28-1.34,4.82-2.01,7.62-2.01s5.28,0.67,7.56,2.01s4.07,3.2,5.37,5.58
		c1.3,2.38,1.95,5.07,1.95,8.07s-0.65,5.75-1.95,8.13c-1.3,2.38-3.09,4.24-5.37,5.58C478.21,85.54,475.69,86.21,472.93,86.21z
		 M472.93,80.75c1.64,0,3.15-0.42,4.53-1.26c1.38-0.84,2.47-2.04,3.27-3.6s1.2-3.36,1.2-5.4s-0.4-3.78-1.2-5.34s-1.89-2.76-3.27-3.6
		s-2.89-1.26-4.53-1.26s-3.15,0.42-4.53,1.26s-2.47,2.04-3.27,3.6s-1.2,3.34-1.2,5.34s0.4,3.84,1.2,5.4c0.8,1.56,1.89,2.76,3.27,3.6
		C469.78,80.33,471.29,80.75,472.93,80.75z"/>
	<path class="st4" d="M489.19,85.61l10.2-15.42l-9.78-14.76h6.78l6.84,10.56h1.2l6.78-10.56h6.84l-9.84,14.76l10.2,15.42h-6.84
		l-7.14-11.16h-1.2l-7.2,11.16H489.19z"/>
</g>
</svg>
