<?xml version="1.0" encoding="UTF-8"?>
<svg id="Layer_1" data-name="Layer 1" xmlns="http://www.w3.org/2000/svg" xmlns:xlink="http://www.w3.org/1999/xlink" viewBox="0 0 557.49 145.63">
  <defs>
    <style>
      .cls-1 {
        fill: #009640;
      }

      .cls-2, .cls-3 {
        fill: #fff;
      }

      .cls-3 {
        fill-rule: evenodd;
      }

      .cls-4 {
        clip-path: url(#clippath-1);
      }

      .cls-5 {
        fill: #95c11f;
      }

      .cls-6 {
        clip-path: url(#clippath);
      }

      .cls-7 {
        fill: none;
      }

      .cls-8 {
        fill: red;
      }

      .cls-9 {
        fill: #1d1d1b;
      }
    </style>
    <clipPath id="clippath">
      <rect class="cls-7" x="21.55" y="16.86" width="92.1" height="93.15"/>
    </clipPath>
    <clipPath id="clippath-1">
      <rect class="cls-7" x="-319.81" y="-32.12" width="299.72" height="303.14"/>
    </clipPath>
  </defs>
  <g>
    <path class="cls-8" d="m21.55,100.43c0,8.07,0,12.57,2.93,15.5,2.93,2.93,7.42,2.93,15.5,2.93h55.28c8.07,0,12.57,0,15.5-2.93s2.93-7.42,2.93-15.5v-55.28c0-8.07,0-12.57-2.93-15.5-2.93-2.93-7.42-2.93-15.5-2.93h-55.28c-8.07,0-12.57,0-15.5,2.93s-2.93,7.42-2.93,15.5v55.28Z"/>
    <path class="cls-3" d="m71.55,76.6v15.28c0,2.16-1.76,3.92-3.92,3.92h-15.22c-2.06,0-3.76,1.6-3.91,3.63v4.07c0,2.16-1.76,3.92-3.92,3.92h-7.62c-2.16,0-3.92-1.76-3.92-3.92v-7.62c0-2.16,1.76-3.92,3.92-3.92h3.67s.08-.01.08-.01c1.98,0,3.62-1.47,3.89-3.38v-15.68c0-2.15,1.76-3.92,3.92-3.92h15.96c1.67-.29,2.97-1.64,3.2-3.32v-23.56c0-2.16,1.76-3.92,3.92-3.92h26.68c2.16,0,3.92,1.76,3.92,3.92v26.87c0,2.16-1.76,3.92-3.92,3.92h-23.17c-1.94.18-3.47,1.77-3.56,3.73"/>
  </g>
  <path class="cls-5" d="m53.34,107.12c-.44,0-.85-.09-1.22-.29l.49-.87c1.44.81,4.68-1.48,5.7-2.35l.65.76c-.38.33-3.32,2.75-5.62,2.75Z"/>
  <path class="cls-5" d="m54.38,110.26c-.86-2.5,3.18-5.9,3.64-6.28l.63.77c-1.03.85-3.86,3.62-3.33,5.19l-.95.32Z"/>
  <g class="cls-6">
    <g>
      <path class="cls-1" d="m148.19,53.16s-2.02,16.48-30,23.94c-27.98,7.46-39.95-.62-52.07,11.66-8.75,8.86-9.81,13.19-9.72,14.91.03.54.37,1.01.87,1.22,2.33,1,10.6,4.16,16.16,1.12,6.53-3.58,8.55-12.59,19.28-13.52,10.62-.92,27.96,7.46,49.14-6.13.38-.24.62-.65.66-1.1,1.18-14.2,5.69-32.09,5.69-32.09Z"/>
      <path class="cls-1" d="m18.41,51.61c.52-.74,1.56-.81,2.21-.19,1.86,1.76,6.23,4.29,14.22.73,11.25-5.02,18.44-13.97,28.61-15.05s15.05,2.44,16.41,7.86.14,14.51-3.8,12.88.81-14.64-10.03-13.69-19.8,22.37-41.08,24c-17.68,1.35-9.74-11.98-6.53-16.54Z"/>
    </g>
  </g>
  <g>
    <path class="cls-2" d="m65.25,100.62s1.86-4.37,5.05-6.17,7.41-1.14,7.41-1.14c0,0-.91,3.21-4.96,5.59-3.78,2.23-7.5,1.71-7.5,1.71Z"/>
    <circle class="cls-9" cx="71.42" cy="96.68" r="2.06"/>
  </g>
  <g>
    <path class="cls-7" d="m92.68,92.49c-10.73.93-12.75,9.95-19.28,13.52-5.56,3.05-13.83-.11-16.16-1.12-.5-.21-.84-.68-.87-1.22-.09-1.72.97-6.05,9.72-14.91,7.25-7.34,14.45-7.41,25.05-7.86-.16-.59-.26-1.2-.26-1.83,0-4.68,4.78-8.47,10.68-8.47s10.28,3.5,10.64,7.93c.47-.1.94-.2,1.42-.31V16.86H21.53v26.85c.73.52,1.68,1.03,2.87,1.36,0-.13-.02-.25-.02-.38,0-3.26,3.11-5.9,6.95-5.9,2.82,0,5.25,1.43,6.33,3.48,1.62-.86,3.17-1.78,4.66-2.73-1.13-.87-1.87-2.18-1.87-3.66,0-2.62,2.26-4.75,5.05-4.75,2.17,0,4,1.29,4.72,3.09,1.98-1.3,3.93-2.5,5.95-3.45-.42-.57-.67-1.25-.67-1.98,0-1.97,1.78-3.56,3.97-3.56s3.85,1.51,3.95,3.39c0,0,.01,0,.02,0,10.17-1.08,15.05,2.44,16.41,7.86,1.36,5.42.14,14.51-3.8,12.88-3.93-1.63.81-14.64-10.03-13.69s-19.8,22.37-41.08,24c-1.26.1-2.38.11-3.39.07v50.27h92.1v-15.83c-8.46-.24-15.57-2.16-20.96-1.69Z"/>
    <path class="cls-5" d="m31.33,59.13c3.84,0,6.95-2.64,6.95-5.9,0-.86-.22-1.68-.61-2.42-.92.49-1.86.96-2.84,1.4-4.61,2.05-8.01,2.08-10.42,1.4.23,3.08,3.24,5.51,6.93,5.51Z"/>
    <path class="cls-5" d="m50.55,44.42c0-.58-.13-1.14-.33-1.65-2.55,1.68-5.13,3.54-7.9,5.31.87.67,1.97,1.08,3.18,1.08,2.79,0,5.05-2.12,5.05-4.75Z"/>
    <path class="cls-5" d="m59.47,40.89c2.19,0,3.97-1.59,3.97-3.56,0-.06-.02-.11-.02-.17-2.57.28-4.94,1.06-7.24,2.14.71.95,1.92,1.58,3.3,1.58Z"/>
    <path class="cls-5" d="m101.57,87.53c5.9,0,10.68-3.79,10.68-8.47,0-.19-.02-.37-.03-.55-8.42,1.75-15.26,2.13-21.06,2.38,1.06,3.8,5.32,6.64,10.42,6.64Z"/>
  </g>
  <g class="cls-4">
    <path class="cls-1" d="m92.3,86.03s-6.58,53.62-97.63,77.9c-91.05,24.28-130.01-2.02-169.46,37.94-28.48,28.84-31.92,42.93-31.63,48.54.09,1.76,1.21,3.29,2.83,3.98,7.57,3.26,34.48,13.54,52.58,3.63,21.25-11.63,27.82-40.97,62.73-44.01,34.58-3.01,90.99,24.27,159.91-19.96,1.24-.79,2.03-2.13,2.15-3.59,3.85-46.2,18.53-104.43,18.53-104.43Z"/>
  </g>
  <g>
    <path class="cls-1" d="m145.21,97.61v-42.18h5.1l.6,3.84h.3c1.08-1.4,2.4-2.49,3.96-3.27,1.56-.78,3.34-1.17,5.34-1.17,2.6,0,4.96.66,7.08,1.98,2.12,1.32,3.8,3.17,5.04,5.55,1.24,2.38,1.86,5.09,1.86,8.13s-.62,5.81-1.86,8.19c-1.24,2.38-2.92,4.23-5.04,5.55-2.12,1.32-4.48,1.98-7.08,1.98-1.96,0-3.71-.38-5.25-1.14-1.54-.76-2.83-1.8-3.87-3.12h-.3v15.66h-5.88Zm14.64-16.86c1.56,0,3.01-.43,4.35-1.29,1.34-.86,2.4-2.06,3.18-3.6.78-1.54,1.17-3.33,1.17-5.37s-.39-3.77-1.17-5.31c-.78-1.54-1.84-2.74-3.18-3.6-1.34-.86-2.79-1.29-4.35-1.29s-3.06.43-4.38,1.29c-1.32.86-2.38,2.06-3.18,3.6-.8,1.54-1.2,3.31-1.2,5.31s.4,3.83,1.2,5.37c.8,1.54,1.86,2.74,3.18,3.6,1.32.86,2.78,1.29,4.38,1.29Z"/>
    <path class="cls-1" d="m179.95,97.61v-5.46h5.88c.52,0,.95-.15,1.29-.45.34-.3.59-.69.75-1.17l1.62-4.62.06,3.54-13.08-34.02h6.3l8.58,23.04h1.2l7.8-23.04h6.24l-13.38,37.38c-.6,1.64-1.39,2.85-2.37,3.63-.98.78-2.43,1.17-4.35,1.17h-6.54Z"/>
    <path class="cls-1" d="m209.59,71.27v-5.52h19.68v5.52h-19.68Z"/>
    <path class="cls-1" d="m235.99,97.61v-42.18h5.1l.6,3.84h.3c1.08-1.4,2.4-2.49,3.96-3.27,1.56-.78,3.34-1.17,5.34-1.17,2.6,0,4.96.66,7.08,1.98,2.12,1.32,3.8,3.17,5.04,5.55,1.24,2.38,1.86,5.09,1.86,8.13s-.62,5.81-1.86,8.19c-1.24,2.38-2.92,4.23-5.04,5.55-2.12,1.32-4.48,1.98-7.08,1.98-1.96,0-3.71-.38-5.25-1.14-1.54-.76-2.83-1.8-3.87-3.12h-.3v15.66h-5.88Zm14.64-16.86c1.56,0,3.01-.43,4.35-1.29,1.34-.86,2.4-2.06,3.18-3.6.78-1.54,1.17-3.33,1.17-5.37s-.39-3.77-1.17-5.31c-.78-1.54-1.84-2.74-3.18-3.6-1.34-.86-2.79-1.29-4.35-1.29s-3.06.43-4.38,1.29c-1.32.86-2.38,2.06-3.18,3.6-.8,1.54-1.2,3.31-1.2,5.31s.4,3.83,1.2,5.37c.8,1.54,1.86,2.74,3.18,3.6,1.32.86,2.78,1.29,4.38,1.29Z"/>
    <path class="cls-1" d="m279.73,85.61c-2.04,0-3.63-.55-4.77-1.65-1.14-1.1-1.71-2.57-1.71-4.41v-18.6h-4.8v-5.52h4.8v-8.76h5.88v8.76h6.9v5.52h-6.9v17.34c0,.68.15,1.17.45,1.47.3.3.79.45,1.47.45h4.98v5.4h-6.3Z"/>
    <path class="cls-1" d="m302.41,86.21c-2.68,0-4.97-.47-6.87-1.41-1.9-.94-3.33-2.14-4.29-3.6-.96-1.46-1.44-2.97-1.44-4.53h5.82c0,.8.27,1.54.81,2.22.54.68,1.31,1.23,2.31,1.65,1,.42,2.22.63,3.66.63,2.08,0,3.68-.37,4.8-1.11,1.12-.74,1.68-1.67,1.68-2.79s-.36-1.94-1.08-2.58c-.72-.64-1.9-1.1-3.54-1.38l-4.92-.84c-3-.52-5.26-1.49-6.78-2.91-1.52-1.42-2.28-3.33-2.28-5.73,0-1.68.44-3.2,1.32-4.56.88-1.36,2.22-2.44,4.02-3.24,1.8-.8,3.96-1.2,6.48-1.2s4.65.45,6.51,1.35c1.86.9,3.29,2.09,4.29,3.57,1,1.48,1.5,3,1.5,4.56h-5.82c0-.8-.26-1.54-.78-2.22-.52-.68-1.27-1.22-2.25-1.62-.98-.4-2.13-.6-3.45-.6-1.92,0-3.39.38-4.41,1.14-1.02.76-1.53,1.7-1.53,2.82,0,.92.34,1.68,1.02,2.28.68.6,1.8,1.04,3.36,1.32l5.04.84c3.12.52,5.43,1.52,6.93,3,1.5,1.48,2.25,3.46,2.25,5.94,0,1.68-.47,3.2-1.41,4.56-.94,1.36-2.33,2.44-4.17,3.24s-4.1,1.2-6.78,1.2Z"/>
    <path class="cls-1" d="m330.19,86.21c-2.12,0-3.99-.41-5.61-1.23s-2.88-1.93-3.78-3.33c-.9-1.4-1.35-3-1.35-4.8,0-1.96.45-3.66,1.35-5.1.9-1.44,2.25-2.57,4.05-3.39,1.8-.82,4.06-1.23,6.78-1.23h7.68v-.78c0-1.96-.57-3.52-1.71-4.68-1.14-1.16-2.69-1.74-4.65-1.74-1.28,0-2.4.2-3.36.6-.96.4-1.71.94-2.25,1.62-.54.68-.87,1.4-.99,2.16h-5.82c.12-1.64.68-3.19,1.68-4.65,1-1.46,2.42-2.63,4.26-3.51,1.84-.88,4-1.32,6.48-1.32s4.65.47,6.51,1.41c1.86.94,3.29,2.28,4.29,4.02,1,1.74,1.5,3.77,1.5,6.09v19.26h-5.1l-.6-3.3h-.3c-.68,1-1.83,1.9-3.45,2.7s-3.49,1.2-5.61,1.2Zm.6-5.04c1.76,0,3.29-.34,4.59-1.02,1.3-.68,2.28-1.64,2.94-2.88.66-1.24.99-2.68.99-4.32v-1.08h-7.26c-2.28,0-3.96.44-5.04,1.32-1.08.88-1.62,2.02-1.62,3.42s.47,2.46,1.41,3.3c.94.84,2.27,1.26,3.99,1.26Z"/>
    <path class="cls-1" d="m353.17,85.61v-30.18h5.1l.6,3.12h.3c.76-.96,1.92-1.82,3.48-2.58,1.56-.76,3.36-1.14,5.4-1.14,2.28,0,4.33.53,6.15,1.59,1.82,1.06,3.25,2.55,4.29,4.47,1.04,1.92,1.56,4.12,1.56,6.6v18.12h-5.94v-17.64c0-1.44-.32-2.73-.96-3.87-.64-1.14-1.51-2.04-2.61-2.7-1.1-.66-2.35-.99-3.75-.99s-2.7.34-3.9,1.02c-1.2.68-2.14,1.6-2.82,2.76-.68,1.16-1.02,2.42-1.02,3.78v17.64h-5.88Z"/>
    <path class="cls-1" d="m400.21,86.21c-2.6,0-4.96-.66-7.08-1.98-2.12-1.32-3.8-3.17-5.04-5.55-1.24-2.38-1.86-5.11-1.86-8.19s.62-5.75,1.86-8.13c1.24-2.38,2.92-4.23,5.04-5.55,2.12-1.32,4.48-1.98,7.08-1.98,1.96,0,3.71.39,5.25,1.17,1.54.78,2.83,1.83,3.87,3.15h.3v-15.54h5.88v42h-5.04l-.6-3.84h-.3c-1.12,1.4-2.45,2.49-3.99,3.27-1.54.78-3.33,1.17-5.37,1.17Zm.72-5.46c1.56,0,3.01-.43,4.35-1.29,1.34-.86,2.4-2.06,3.18-3.6.78-1.54,1.17-3.33,1.17-5.37s-.39-3.77-1.17-5.31c-.78-1.54-1.84-2.74-3.18-3.6-1.34-.86-2.79-1.29-4.35-1.29s-3.07.43-4.41,1.29c-1.34.86-2.4,2.06-3.18,3.6-.78,1.54-1.17,3.31-1.17,5.31s.39,3.83,1.17,5.37c.78,1.54,1.84,2.74,3.18,3.6,1.34.86,2.81,1.29,4.41,1.29Z"/>
    <path class="cls-1" d="m439.45,86.21c-2.04,0-3.83-.39-5.37-1.17-1.54-.78-2.85-1.87-3.93-3.27h-.3l-.6,3.84h-5.1v-42h5.88v15.54h.3c1.08-1.32,2.38-2.37,3.9-3.15,1.52-.78,3.26-1.17,5.22-1.17,2.6,0,4.96.66,7.08,1.98,2.12,1.32,3.8,3.17,5.04,5.55,1.24,2.38,1.86,5.09,1.86,8.13s-.62,5.81-1.86,8.19c-1.24,2.38-2.92,4.23-5.04,5.55-2.12,1.32-4.48,1.98-7.08,1.98Zm-.66-5.46c1.56,0,3.01-.43,4.35-1.29,1.34-.86,2.4-2.06,3.18-3.6.78-1.54,1.17-3.33,1.17-5.37s-.39-3.77-1.17-5.31c-.78-1.54-1.84-2.74-3.18-3.6-1.34-.86-2.79-1.29-4.35-1.29s-3.06.43-4.38,1.29c-1.32.86-2.38,2.06-3.18,3.6-.8,1.54-1.2,3.31-1.2,5.31s.4,3.83,1.2,5.37c.8,1.54,1.86,2.74,3.18,3.6,1.32.86,2.78,1.29,4.38,1.29Z"/>
    <path class="cls-1" d="m472.93,86.21c-2.8,0-5.34-.67-7.62-2.01-2.28-1.34-4.07-3.2-5.37-5.58-1.3-2.38-1.95-5.09-1.95-8.13s.65-5.69,1.95-8.07c1.3-2.38,3.09-4.24,5.37-5.58,2.28-1.34,4.82-2.01,7.62-2.01s5.28.67,7.56,2.01c2.28,1.34,4.07,3.2,5.37,5.58,1.3,2.38,1.95,5.07,1.95,8.07s-.65,5.75-1.95,8.13c-1.3,2.38-3.09,4.24-5.37,5.58-2.28,1.34-4.8,2.01-7.56,2.01Zm0-5.46c1.64,0,3.15-.42,4.53-1.26,1.38-.84,2.47-2.04,3.27-3.6.8-1.56,1.2-3.36,1.2-5.4s-.4-3.78-1.2-5.34-1.89-2.76-3.27-3.6-2.89-1.26-4.53-1.26-3.15.42-4.53,1.26c-1.38.84-2.47,2.04-3.27,3.6-.8,1.56-1.2,3.34-1.2,5.34s.4,3.84,1.2,5.4c.8,1.56,1.89,2.76,3.27,3.6,1.38.84,2.89,1.26,4.53,1.26Z"/>
    <path class="cls-1" d="m489.19,85.61l10.2-15.42-9.78-14.76h6.78l6.84,10.56h1.2l6.78-10.56h6.84l-9.84,14.76,10.2,15.42h-6.84l-7.14-11.16h-1.2l-7.2,11.16h-6.84Z"/>
  </g>
</svg>