<?xml version="1.0" encoding="utf-8"?>
<!-- Generator: Adobe Illustrator 27.4.1, SVG Export Plug-In . SVG Version: 6.00 Build 0)  -->
<svg version="1.1" id="Layer_1" xmlns="http://www.w3.org/2000/svg" xmlns:xlink="http://www.w3.org/1999/xlink" x="0px" y="0px"
	 viewBox="0 0 300 300" style="enable-background:new 0 0 300 300;" xml:space="preserve">
<style type="text/css">
	.st0{fill:#FF0000;}
	.st1{fill-rule:evenodd;clip-rule:evenodd;fill:#FFFFFF;}
	.st2{fill:#95C11F;}
	.st3{clip-path:url(#SVGID_00000073720649171970785120000011051435410206294956_);}
	.st4{fill:#009640;}
	.st5{fill:#FFFFFF;}
	.st6{fill:#1D1D1B;}
	.st7{fill:none;}
</style>
<g>
	<path class="st0" d="M0.19,239.85c0,26.27,0,40.89,9.54,50.43s24.16,9.54,50.43,9.54h179.9c26.27,0,40.89,0,50.43-9.54
		c9.54-9.54,9.54-24.14,9.54-50.43V59.95c0-26.27,0-40.89-9.54-50.43c-9.55-9.54-24.17-9.54-50.44-9.54H60.15
		c-26.26,0-40.89,0-50.43,9.54c-9.53,9.54-9.53,24.16-9.53,50.43V239.85L0.19,239.85z"/>
	<path class="st1" d="M162.9,162.3v49.71c0,7.02-5.74,12.75-12.75,12.75h-49.52c-6.71,0-12.23,5.19-12.73,11.8v13.25
		c0,7.02-5.74,12.75-12.75,12.75H50.34c-7.02,0-12.75-5.74-12.75-12.75V225c0-7.02,5.74-12.75,12.75-12.75h11.95v-0.04h0.26
		c6.45,0,11.78-4.78,12.65-10.99v-51.01c0-7,5.74-12.75,12.75-12.75h51.93c5.43-0.96,9.67-5.32,10.43-10.8V49.98
		c0-7.02,5.74-12.75,12.75-12.75h86.82c7.02,0,12.75,5.74,12.75,12.75v87.43c0,7.02-5.74,12.75-12.75,12.75h-75.39
		c-6.32,0.59-11.3,5.76-11.58,12.15"/>
	<g id="XMLID_00000137095350533835815650000003466306646797238693_">
		<g id="XMLID_00000160167884466530392370000012336008017886385282_">
			<path class="st0" d="M0.05,239.71c0,26.28,0,40.9,9.54,50.44c9.54,9.54,24.17,9.54,50.44,9.54h179.95c26.28,0,40.9,0,50.44-9.54
				c9.54-9.54,9.54-24.15,9.54-50.44V59.76c0-26.28,0-40.9-9.54-50.44s-24.17-9.54-50.44-9.54H60.03c-26.28,0-40.9,0-50.44,9.54
				S0.05,33.49,0.05,59.76V239.71z"/>
			<path id="XMLID_00000047767254252987933590000012039059147552122754_" class="st1" d="M175.85,175.58
				c-14.28,14.28-37.4,14.28-51.68,0c-14.28-14.28-14.28-37.4,0-51.68s37.4-14.28,51.68,0C190.13,138.18,190.13,161.3,175.85,175.58
				 M256.61,123.09l-79.96-79.96c-11.67-11.67-18.17-18.17-26.64-18.17c-8.48,0-14.97,6.5-26.64,18.17l-79.96,79.96
				c-11.67,11.67-18.17,18.17-18.17,26.64c0,8.48,6.5,14.97,18.17,26.64l79.93,79.93c11.67,11.67,18.17,18.17,26.64,18.17
				c8.48,0,14.97-6.5,26.64-18.17l79.93-79.93c11.67-11.67,18.17-18.17,18.17-26.64C274.78,141.26,268.28,134.76,256.61,123.09z"/>
		</g>
	</g>
</g>
<path class="st2" d="M103.65,261.5c-1.4,0-2.72-0.28-3.9-0.94l1.46-2.62c4.78,2.67,15.11-4.62,18.68-7.66l1.94,2.29
	C120.59,253.63,111.07,261.5,103.65,261.5z"/>
<path class="st2" d="M107.14,271.8c-2.76-8.06,10.31-19.08,11.81-20.31l1.9,2.32c-3.62,2.98-12.64,11.84-10.87,17.02L107.14,271.8z"
	/>
<g>
	<defs>
		<rect id="SVGID_1_" x="0.19" y="-32.12" width="299.72" height="303.14"/>
	</defs>
	<clipPath id="SVGID_00000101787068256929828130000004518302421288717202_">
		<use xlink:href="#SVGID_1_"  style="overflow:visible;"/>
	</clipPath>
	<g style="clip-path:url(#SVGID_00000101787068256929828130000004518302421288717202_);">
		<g>
			<path class="st4" d="M412.3,86.03c0,0-6.58,53.62-97.63,77.9s-130.01-2.02-169.46,37.94c-28.48,28.84-31.92,42.93-31.63,48.54
				c0.09,1.76,1.21,3.29,2.83,3.98c7.57,3.26,34.48,13.54,52.58,3.63c21.25-11.63,27.82-40.97,62.73-44.01
				c34.58-3.01,90.99,24.27,159.91-19.96c1.24-0.79,2.03-2.13,2.15-3.59c3.85-46.2,18.53-104.43,18.53-104.43L412.3,86.03z"/>
			<path class="st4" d="M-10.04,80.97c1.68-2.39,5.06-2.63,7.18-0.61c6.05,5.73,20.26,13.97,46.29,2.36
				c36.62-16.33,60.01-45.45,93.1-48.98s48.98,7.94,53.39,25.59s0.44,47.21-12.36,41.92s2.65-47.66-32.65-44.57
				s-64.42,72.81-133.69,78.11C-46.31,139.19-20.46,95.81-10.04,80.97z"/>
		</g>
	</g>
</g>
<g>
	<path class="st5" d="M142.4,240.46c0,0,6.04-14.23,16.43-20.07s24.12-3.7,24.12-3.7s-2.96,10.43-16.15,18.2
		C154.5,242.14,142.4,240.46,142.4,240.46L142.4,240.46z"/>
	<circle class="st6" cx="162.46" cy="227.65" r="6.7"/>
</g>
<g>
	<path class="st7" d="M231.66,214.01c-34.9,3.04-41.48,32.37-62.73,44.01c-18.1,9.91-45.01-0.37-52.58-3.63
		c-1.62-0.7-2.74-2.22-2.83-3.98c-0.29-5.61,3.16-19.69,31.63-48.54c23.6-23.9,47.03-24.1,81.52-25.59
		c-0.54-1.92-0.84-3.92-0.84-5.97c0-15.23,15.56-27.58,34.75-27.58s33.47,11.4,34.63,25.79c1.53-0.32,3.07-0.65,4.64-0.99V-32.12
		H0.14v87.39c2.39,1.7,5.47,3.34,9.34,4.43c-0.03-0.42-0.07-0.83-0.07-1.25c0-10.6,10.12-19.19,22.61-19.19
		c9.18,0,17.07,4.65,20.61,11.33c5.28-2.8,10.32-5.8,15.16-8.9c-3.69-2.83-6.1-7.09-6.1-11.92c0-8.53,7.36-15.44,16.44-15.44
		c7.06,0,13.02,4.2,15.35,10.06c6.43-4.24,12.81-8.14,19.37-11.24c-1.37-1.84-2.18-4.05-2.18-6.43c0-6.4,5.78-11.58,12.91-11.58
		c7.13,0,12.52,4.89,12.84,11.03c0.02,0,0.04,0,0.06,0c33.09-3.53,48.98,7.94,53.39,25.59s0.44,47.21-12.36,41.92
		c-12.8-5.3,2.65-47.66-32.65-44.57s-64.42,72.81-133.7,78.1c-4.1,0.31-7.74,0.36-11.03,0.21v163.6h299.72v-51.51
		c-27.53-0.78-50.67-7.02-68.2-5.5L231.66,214.01z"/>
	<path class="st2" d="M32.02,105.44c12.49,0,22.61-8.59,22.61-19.19c0-2.81-0.73-5.46-2-7.87c-3,1.59-6.06,3.14-9.25,4.56
		c-15,6.68-26.05,6.77-33.9,4.56C10.24,97.51,20.03,105.44,32.02,105.44z"/>
	<path class="st2" d="M94.56,57.57c0-1.9-0.41-3.7-1.08-5.38C85.19,57.66,76.8,63.7,67.79,69.48c2.83,2.17,6.4,3.53,10.34,3.53
		C87.21,73.01,94.57,66.1,94.56,57.57L94.56,57.57z"/>
	<path class="st2" d="M123.58,46.09c7.13,0,12.91-5.19,12.91-11.58c0-0.19-0.05-0.36-0.06-0.54c-8.35,0.9-16.09,3.43-23.57,6.98
		c2.32,3.1,6.25,5.15,10.73,5.15L123.58,46.09z"/>
	<path class="st2" d="M260.58,197.88c19.19,0,34.75-12.35,34.75-27.58c0-0.6-0.07-1.19-0.11-1.79c-27.4,5.71-49.65,6.94-68.54,7.76
		c3.44,12.36,17.3,21.61,33.91,21.61H260.58z"/>
</g>
</svg>
