<?xml version="1.0" encoding="UTF-8"?>
<svg id="Layer_1" data-name="Layer 1" xmlns="http://www.w3.org/2000/svg" xmlns:xlink="http://www.w3.org/1999/xlink" viewBox="0 0 300 300">
  <defs>
    <style>
      .cls-1 {
        fill: #009640;
      }

      .cls-2, .cls-3 {
        fill: #fff;
      }

      .cls-3 {
        fill-rule: evenodd;
      }

      .cls-4 {
        fill: #95c11f;
      }

      .cls-5 {
        clip-path: url(#clippath);
      }

      .cls-6 {
        fill: none;
      }

      .cls-7 {
        fill: red;
      }

      .cls-8 {
        fill: #1d1d1b;
      }
    </style>
    <clipPath id="clippath">
      <rect class="cls-6" x=".19" y="-32.12" width="299.72" height="303.14"/>
    </clipPath>
  </defs>
  <g>
    <path class="cls-7" d="m.19,239.85c0,26.27,0,40.89,9.54,50.43,9.54,9.54,24.16,9.54,50.43,9.54h179.9c26.27,0,40.89,0,50.43-9.54,9.54-9.54,9.54-24.14,9.54-50.43V59.95c0-26.27,0-40.89-9.54-50.43C280.94-.02,266.32-.02,240.05-.02H60.15C33.89-.02,19.26-.02,9.72,9.52.19,19.06.19,33.68.19,59.95v179.9Z"/>
    <path class="cls-3" d="m162.9,162.3v49.71c0,7.02-5.74,12.75-12.75,12.75h-49.52c-6.71,0-12.23,5.19-12.73,11.8v13.25c0,7.02-5.74,12.75-12.75,12.75h-24.81c-7.02,0-12.75-5.74-12.75-12.75v-24.81c0-7.02,5.74-12.75,12.75-12.75h11.95v-.04h.26c6.45,0,11.78-4.78,12.65-10.99v-51.01c0-7,5.74-12.75,12.75-12.75h51.93c5.43-.96,9.67-5.32,10.43-10.8V49.98c0-7.02,5.74-12.75,12.75-12.75h86.82c7.02,0,12.75,5.74,12.75,12.75v87.43c0,7.02-5.74,12.75-12.75,12.75h-75.39c-6.32.59-11.3,5.76-11.58,12.15"/>
  </g>
  <path class="cls-4" d="m103.65,261.5c-1.4,0-2.72-.28-3.9-.94l1.46-2.62c4.78,2.67,15.11-4.62,18.68-7.66l1.94,2.29c-1.24,1.06-10.76,8.93-18.18,8.93Z"/>
  <path class="cls-4" d="m107.14,271.8c-2.76-8.06,10.31-19.08,11.81-20.31l1.9,2.32c-3.62,2.98-12.64,11.84-10.87,17.02l-2.84.97Z"/>
  <g class="cls-5">
    <g>
      <path class="cls-1" d="m412.3,86.03s-6.58,53.62-97.63,77.9c-91.05,24.28-130.01-2.02-169.46,37.94-28.48,28.84-31.92,42.93-31.63,48.54.09,1.76,1.21,3.29,2.83,3.98,7.57,3.26,34.48,13.54,52.58,3.63,21.25-11.63,27.82-40.97,62.73-44.01,34.58-3.01,90.99,24.27,159.91-19.96,1.24-.79,2.03-2.13,2.15-3.59,3.85-46.2,18.53-104.43,18.53-104.43Z"/>
      <path class="cls-1" d="m-10.04,80.97c1.68-2.39,5.06-2.63,7.18-.61,6.05,5.73,20.26,13.97,46.29,2.36,36.62-16.33,60.01-45.45,93.1-48.98,33.09-3.53,48.98,7.94,53.39,25.59,4.41,17.65.44,47.21-12.36,41.92s2.65-47.66-32.65-44.57S80.49,129.49,11.22,134.79c-57.53,4.4-31.68-38.98-21.26-53.82Z"/>
    </g>
  </g>
  <g>
    <path class="cls-2" d="m142.4,240.46s6.04-14.23,16.43-20.07,24.12-3.7,24.12-3.7c0,0-2.96,10.43-16.15,18.2-12.3,7.25-24.4,5.57-24.4,5.57Z"/>
    <circle class="cls-8" cx="162.46" cy="227.65" r="6.7"/>
  </g>
  <g>
    <path class="cls-6" d="m231.66,214.01c-34.9,3.04-41.48,32.37-62.73,44.01-18.1,9.91-45.01-.37-52.58-3.63-1.62-.7-2.74-2.22-2.83-3.98-.29-5.61,3.16-19.69,31.63-48.54,23.6-23.9,47.03-24.1,81.52-25.59-.54-1.92-.84-3.92-.84-5.97,0-15.23,15.56-27.58,34.75-27.58s33.47,11.4,34.63,25.79c1.53-.32,3.07-.65,4.64-.99V-32.12H.14V55.27c2.39,1.7,5.47,3.34,9.34,4.43-.03-.42-.07-.83-.07-1.25,0-10.6,10.12-19.19,22.61-19.19,9.18,0,17.07,4.65,20.61,11.33,5.28-2.8,10.32-5.8,15.16-8.9-3.69-2.83-6.1-7.09-6.1-11.92,0-8.53,7.36-15.44,16.44-15.44,7.06,0,13.02,4.2,15.35,10.06,6.43-4.24,12.81-8.14,19.37-11.24-1.37-1.84-2.18-4.05-2.18-6.43,0-6.4,5.78-11.58,12.91-11.58S136.1.03,136.42,6.17c.02,0,.04,0,.06,0,33.09-3.53,48.98,7.94,53.39,25.59,4.41,17.65.44,47.21-12.36,41.92-12.8-5.3,2.65-47.66-32.65-44.57-35.3,3.09-64.42,72.81-133.7,78.1-4.1.31-7.74.36-11.03.21v163.6h299.72v-51.51c-27.53-.78-50.67-7.02-68.2-5.5Z"/>
    <path class="cls-4" d="m32.02,105.44c12.49,0,22.61-8.59,22.61-19.19,0-2.81-.73-5.46-2-7.87-3,1.59-6.06,3.14-9.25,4.56-15,6.68-26.05,6.77-33.9,4.56.76,10.01,10.55,17.94,22.54,17.94Z"/>
    <path class="cls-4" d="m94.56,57.57c0-1.9-.41-3.7-1.08-5.38-8.29,5.47-16.68,11.51-25.69,17.29,2.83,2.17,6.4,3.53,10.34,3.53,9.08,0,16.44-6.91,16.44-15.44Z"/>
    <path class="cls-4" d="m123.58,46.09c7.13,0,12.91-5.19,12.91-11.58,0-.19-.05-.36-.06-.54-8.35.9-16.09,3.43-23.57,6.98,2.32,3.1,6.25,5.15,10.73,5.15Z"/>
    <path class="cls-4" d="m260.58,197.88c19.19,0,34.75-12.35,34.75-27.58,0-.6-.07-1.19-.11-1.79-27.4,5.71-49.65,6.94-68.54,7.76,3.44,12.36,17.3,21.61,33.91,21.61Z"/>
  </g>
</svg>